<?xml version="1.0" standalone="no"?>
<!DOCTYPE svg PUBLIC "-//W3C//DTD SVG 20010904//EN"
 "http://www.w3.org/TR/2001/REC-SVG-20010904/DTD/svg10.dtd">
<svg version="1.0" xmlns="http://www.w3.org/2000/svg"
 width="471.000000pt" height="471.000000pt" viewBox="0 0 471.000000 471.000000"
 preserveAspectRatio="xMidYMid meet">
<metadata>
Created by potrace 1.11, written by Peter Selinger 2001-2013
</metadata>
<g transform="translate(0.000000,471.000000) scale(0.100000,-0.100000)"
fill="#000000" stroke="none">
<path d="M3602 4019 l0 -121 24 5 c13 2 24 0 24 -4 0 -5 5 -9 11 -9 5 0 7 6 3
13 -5 9 -4 9 6 0 7 -6 19 -9 27 -6 11 5 14 1 9 -13 -3 -10 -2 -25 3 -32 6 -10
10 -10 21 3 11 13 10 15 -1 12 -8 -2 -11 -2 -6 0 4 3 5 9 2 14 -4 5 1 6 9 3
19 -7 19 -9 5 -37 -9 -18 -9 -20 1 -10 7 6 19 9 26 6 8 -3 14 0 14 7 0 6 -4 9
-8 6 -5 -3 -9 1 -9 9 0 8 4 15 9 15 4 0 8 -5 8 -11 0 -5 4 -8 10 -4 5 3 7 13
4 23 -5 14 -4 14 4 2 6 -8 8 -18 5 -23 -4 -6 6 -7 23 -3 18 4 24 3 16 -2 -10
-7 -10 -11 2 -21 11 -9 16 -9 22 0 5 8 3 9 -6 4 -8 -5 -11 -3 -8 6 6 17 30 19
41 4 4 -5 5 2 3 18 -3 16 0 27 6 27 6 0 8 3 5 7 -4 3 1 12 11 20 16 12 16 13
-2 6 -13 -4 -17 -3 -12 5 3 6 1 14 -5 18 -8 5 -4 13 12 26 13 11 18 17 12 13
-15 -7 -18 11 -3 20 6 3 10 12 10 18 0 7 -5 4 -11 -6 -6 -9 -15 -15 -20 -11
-6 3 -5 12 3 22 10 12 10 14 1 8 -8 -4 -13 -2 -13 4 0 6 -5 8 -11 4 -6 -3 -7
-9 -3 -13 5 -3 10 -10 11 -16 1 -5 5 -19 8 -30 5 -14 4 -16 -3 -6 -7 9 -12 10
-16 2 -4 -6 -2 -11 5 -11 7 0 9 -3 6 -7 -4 -3 -2 -12 4 -19 7 -9 4 -16 -10
-26 -12 -8 -18 -18 -14 -21 3 -4 12 1 20 11 12 15 13 14 1 -8 -7 -14 -11 -28
-10 -32 2 -9 -26 -4 -35 7 -4 4 -3 5 4 1 6 -3 14 -2 18 4 3 5 2 10 -4 10 -5 0
-9 9 -8 20 1 12 7 18 14 16 7 -3 13 2 13 10 0 8 -4 13 -9 10 -4 -3 -7 8 -5 25
3 21 0 28 -8 23 -7 -5 -8 -3 -2 7 12 19 15 77 4 84 -4 3 -6 -3 -3 -14 3 -10 1
-21 -4 -24 -5 -3 -10 4 -10 16 -4 72 5 67 -124 67 l-117 0 0 -121z m228 -129
c0 -5 -2 -10 -4 -10 -3 0 -8 5 -11 10 -3 6 -1 10 4 10 6 0 11 -4 11 -10z"/>
<path d="M3309 3911 c-4 -46 -5 -87 -2 -97 2 -6 22 -10 44 -10 22 1 45 -2 52
-6 6 -4 12 -34 13 -68 1 -34 4 -63 7 -66 3 -3 2 -17 -2 -32 -7 -26 -7 -26
-109 -26 l-102 0 0 -658 c0 -664 0 -664 -32 -659 -4 0 -4 -7 -1 -16 4 -11 8
-13 11 -5 2 7 8 12 14 12 7 0 7 -5 -1 -13 -6 -8 -8 -17 -4 -20 3 -4 1 -7 -5
-7 -10 0 -21 21 -23 45 0 6 -7 14 -15 18 -8 5 -12 12 -9 17 3 5 1 11 -5 15 -6
4 -8 11 -4 16 9 16 23 0 19 -23 -3 -11 -2 -18 2 -14 3 3 12 1 20 -6 7 -6 16
-8 20 -4 3 3 1 6 -5 6 -6 0 -9 8 -6 18 5 13 4 14 -4 3 -11 -16 -21 -3 -16 22
1 11 0 16 -4 13 -3 -4 -12 4 -20 16 -7 13 -11 15 -8 6 3 -10 1 -20 -4 -23 -4
-3 -7 6 -5 20 1 14 -4 29 -12 33 -19 11 -6 42 15 35 13 -4 14 -3 3 5 -7 5 -10
16 -6 23 4 8 -2 3 -14 -11 -19 -24 -25 -10 -7 19 7 11 5 13 -7 8 -18 -7 -26 1
-33 35 -7 33 -12 52 -14 58 -1 3 -2 8 -1 13 0 4 -4 7 -10 7 -5 0 -7 5 -4 11 4
5 1 18 -7 27 -8 9 -14 24 -13 32 0 8 -3 18 -7 21 -5 3 -10 16 -13 28 -2 13 -9
29 -16 37 -6 8 -8 14 -4 14 4 0 2 7 -5 15 -7 8 -9 15 -6 15 4 0 0 10 -8 21 -8
12 -12 28 -9 37 5 11 3 13 -8 7 -8 -4 -11 -4 -6 0 8 9 47 18 47 11 0 -3 -7
-12 -16 -20 -8 -9 -11 -16 -5 -16 16 0 33 37 21 45 -5 3 -14 4 -18 1 -4 -2
-14 -1 -22 4 -12 7 -13 15 -4 39 11 27 10 29 -11 26 -16 -1 -22 2 -18 11 3 8
8 12 12 9 4 -2 8 2 8 10 0 8 -5 11 -10 8 -6 -4 -8 0 -4 10 4 11 2 14 -7 11 -7
-3 -19 2 -26 11 -7 8 -9 15 -6 15 4 0 1 10 -6 23 -7 12 -13 25 -14 30 -1 4 -3
9 -4 12 -1 3 -3 9 -4 14 0 5 -5 13 -9 17 -4 4 3 14 15 21 22 13 22 14 1 8 -26
-7 -39 10 -22 31 10 12 9 13 -7 8 -18 -7 -18 -6 1 16 l20 23 -24 -13 c-18 -9
-22 -9 -16 0 4 7 1 17 -6 22 -10 7 -7 8 11 4 23 -5 23 -4 -2 6 -30 13 -35 23
-16 34 7 4 8 3 4 -4 -4 -7 -3 -12 3 -12 5 0 9 8 8 19 -1 12 -7 17 -19 13 -13
-3 -18 1 -18 17 0 11 -5 21 -12 21 -6 0 -8 3 -5 6 3 4 1 16 -5 28 -7 11 -12
24 -13 28 0 3 -3 9 -7 13 -4 4 -4 13 -1 21 3 8 -1 14 -8 14 -8 1 -4 6 8 13 22
12 22 13 3 25 -11 7 -20 8 -20 3 0 -5 6 -12 13 -14 9 -4 9 -6 0 -6 -17 -1 -31
29 -27 56 2 14 -1 22 -8 20 -7 -1 -13 4 -14 11 -1 6 -3 14 -4 17 -1 3 -3 8 -4
13 -1 4 -5 13 -9 20 -5 6 -6 16 -2 21 3 5 0 13 -6 17 -9 5 -6 11 7 22 19 14
18 14 -1 8 -16 -4 -24 3 -36 29 -12 25 -13 37 -5 45 8 8 6 9 -6 5 -17 -7 -26
9 -10 18 4 2 1 2 -6 1 -7 -2 -18 7 -24 20 -6 14 -19 27 -30 29 -11 3 -18 9
-15 14 3 5 -2 9 -11 10 -9 1 -37 6 -62 13 -144 36 -282 -89 -295 -268 -2 -26
-6 -168 -10 -317 -10 -462 -16 -609 -26 -621 -5 -6 -6 -14 -3 -17 3 -3 3 -11
-1 -17 -5 -8 -11 -8 -21 1 -12 10 -13 9 -8 -6 5 -13 4 -16 -4 -11 -7 4 -12 16
-12 27 0 11 4 18 8 15 5 -3 9 2 9 11 0 12 -5 11 -19 -7 -10 -12 -18 -17 -18
-11 0 7 -4 17 -10 24 -45 56 -56 74 -52 86 2 8 0 11 -5 8 -12 -8 -51 35 -46
50 2 6 -1 15 -8 19 -8 5 -10 3 -5 -7 4 -8 0 -5 -8 6 -9 11 -23 28 -31 38 -11
12 -11 17 -2 17 6 0 1 6 -13 13 -16 8 -25 21 -24 35 0 18 -2 20 -15 10 -9 -7
-13 -8 -9 -4 4 5 -16 36 -45 69 -28 34 -47 58 -41 54 7 -4 14 0 17 7 4 10 0
13 -15 11 -15 -3 -19 0 -15 14 3 14 0 17 -14 14 -13 -4 -19 0 -19 11 0 9 -5
16 -12 16 -6 0 -8 3 -4 7 4 5 14 -1 22 -11 8 -11 14 -15 14 -9 0 7 -5 15 -10
18 -6 4 -7 11 -4 17 4 6 2 8 -4 5 -14 -9 -43 3 -36 14 3 5 -3 9 -13 10 -16 0
-16 1 2 9 19 8 19 9 -1 9 -12 1 -29 12 -38 26 -19 29 -21 49 -3 39 6 -4 9 -4
5 1 -4 4 -3 13 2 20 7 8 5 12 -5 12 -8 0 -12 -4 -9 -8 9 -15 -18 -21 -33 -6
-12 11 -12 16 -2 22 7 5 10 4 5 -3 -3 -6 -2 -13 3 -16 5 -4 8 2 7 11 -2 10
-10 18 -19 18 -23 0 -58 50 -50 72 6 15 5 16 -9 5 -14 -11 -17 -10 -23 7 -3
12 -10 21 -15 21 -5 0 -9 8 -9 18 -1 38 -5 49 -17 49 -9 0 -8 -7 4 -26 10 -18
6 -15 -16 9 -17 19 -34 43 -37 53 -4 9 -11 17 -17 17 -6 0 -9 2 -6 5 3 3 -12
24 -34 47 -21 23 -38 46 -38 52 0 13 -50 46 -97 65 -18 8 -33 18 -33 23 0 5
-4 7 -9 4 -5 -3 -14 1 -21 9 -6 7 -18 11 -25 9 -8 -3 -22 3 -31 15 -10 11 -21
18 -25 15 -12 -7 -130 52 -121 61 4 5 1 5 -6 1 -8 -5 -22 0 -35 11 -12 11 -30
23 -40 26 -20 7 -77 -17 -77 -33 0 -5 14 -33 31 -62 18 -29 32 -59 32 -65 0
-7 4 -13 9 -13 4 0 8 -6 8 -14 0 -8 4 -16 8 -18 15 -6 62 -100 55 -111 -3 -6
-1 -7 5 -3 7 4 19 -9 30 -31 21 -43 34 -66 80 -137 17 -28 32 -55 32 -60 0 -5
6 -17 14 -25 8 -9 16 -23 18 -31 2 -8 11 -23 21 -34 10 -11 15 -26 12 -34 -2
-7 0 -10 5 -7 5 3 12 -6 16 -20 3 -14 10 -25 15 -25 5 0 9 -4 9 -10 0 -5 16
-34 35 -64 19 -30 36 -60 37 -67 2 -8 5 -16 8 -19 14 -13 60 -91 60 -100 0 -6
9 -21 20 -33 11 -12 18 -27 15 -35 -2 -7 -1 -11 4 -8 5 3 22 -20 37 -52 16
-31 32 -58 37 -60 4 -2 7 -9 7 -15 0 -6 6 -18 14 -26 7 -9 26 -41 42 -71 16
-30 35 -61 42 -68 7 -8 10 -18 7 -23 -4 -5 -1 -9 5 -9 6 0 9 -4 6 -9 -3 -5 1
-12 10 -15 9 -4 14 -13 10 -22 -3 -8 -2 -12 3 -9 5 3 12 -4 16 -15 4 -11 22
-44 40 -72 19 -28 32 -55 29 -60 -3 -4 0 -8 6 -8 7 0 9 -7 6 -16 -3 -8 -2 -12
4 -9 12 7 33 -32 24 -47 -4 -6 -3 -8 3 -5 5 4 16 -6 24 -21 8 -15 20 -33 27
-40 7 -8 10 -18 7 -23 -4 -5 -2 -9 3 -9 5 0 17 -18 28 -40 10 -22 23 -40 28
-40 4 0 5 -7 2 -16 -3 -8 -2 -12 4 -9 6 3 10 2 10 -4 0 -6 11 -27 25 -47 27
-40 32 -59 13 -48 -8 4 -10 3 -5 -2 5 -5 14 -9 20 -9 7 0 12 -10 11 -22 0 -12
3 -21 8 -20 9 2 53 -67 81 -123 6 -14 18 -31 25 -39 7 -7 10 -21 7 -29 -3 -9
-3 -13 1 -9 4 4 13 -1 20 -11 19 -25 17 -37 -3 -21 -16 13 -17 12 -4 -4 8 -9
16 -15 19 -12 9 9 54 -74 46 -87 -4 -7 -3 -8 4 -4 11 7 17 -7 12 -29 -1 -5 1
-7 5 -3 9 8 35 -16 35 -32 0 -6 5 -8 10 -5 6 3 13 -1 16 -9 3 -9 10 -13 15
-10 13 8 11 -10 -3 -25 -9 -9 -9 -12 -1 -7 6 3 14 0 17 -6 3 -7 4 -4 3 6 -1
10 4 21 11 23 8 3 10 -1 5 -12 -5 -15 -3 -16 15 -6 14 7 23 8 27 1 3 -5 11
-10 16 -10 6 0 7 5 3 12 -4 7 -3 8 5 4 13 -9 5 -27 -12 -25 -26 3 -60 -1 -54
-7 11 -11 79 -6 87 6 5 8 9 7 13 -5 4 -9 3 -14 -2 -11 -5 3 -14 -1 -21 -9 -9
-10 -9 -15 -1 -15 6 0 11 4 11 9 0 14 30 7 41 -10 7 -12 9 -12 9 0 0 11 4 9
15 -5 13 -16 14 -17 9 -1 -4 10 -3 17 2 16 32 -6 45 2 39 24 -4 15 -3 18 3 8
8 -11 10 -11 14 0 3 9 6 8 11 -4 4 -12 -2 -21 -21 -33 -15 -8 -19 -13 -10 -10
10 3 21 -2 26 -11 8 -14 10 -13 15 1 5 11 3 15 -4 10 -7 -4 -10 -1 -7 7 5 15
31 18 63 8 16 -5 21 -2 21 12 0 10 -4 15 -11 10 -5 -4 -21 -8 -34 -9 -13 0
-22 0 -20 1 2 2 13 9 23 17 16 12 18 12 12 1 -6 -9 -5 -12 5 -9 8 3 13 11 11
17 -2 9 3 9 18 1 11 -6 18 -15 15 -20 -3 -6 1 -7 10 -4 18 7 30 48 19 66 -6
10 -5 10 8 0 9 -8 14 -20 11 -28 -3 -8 0 -14 7 -14 6 0 8 5 4 12 -5 8 -1 9 12
5 17 -6 17 -5 3 5 -20 17 -31 46 -18 53 5 4 9 3 8 -2 -6 -34 27 -42 54 -13 10
10 9 11 -2 5 -11 -6 -13 -4 -8 10 4 9 2 25 -5 33 -11 13 -11 14 1 8 10 -7 12
-3 6 15 -7 23 -6 23 7 5 11 -14 17 -16 22 -7 6 9 12 9 24 -1 15 -12 16 -11 3
5 -12 16 -12 20 2 35 16 15 18 15 33 -3 14 -18 14 -18 0 10 -8 17 -22 46 -31
65 -14 30 -14 32 -1 16 9 -11 19 -17 22 -13 4 4 1 13 -6 22 -7 9 -10 18 -6 22
3 3 6 1 6 -5 0 -6 6 -10 13 -8 6 1 9 1 4 -1 -4 -3 -4 -9 -1 -14 3 -6 1 -15 -5
-22 -17 -22 1 -37 24 -20 19 15 19 15 -5 9 -22 -6 -23 -5 -9 6 9 7 14 19 11
27 -3 9 0 11 9 6 8 -5 11 -5 7 0 -4 4 -2 15 5 24 10 14 10 14 -4 4 -12 -10
-19 -10 -35 2 -18 14 -18 14 2 9 12 -3 25 0 29 7 5 8 4 10 -3 5 -7 -4 -12 -1
-12 9 0 11 5 15 15 12 8 -4 17 -1 21 5 4 7 3 8 -5 4 -6 -4 -14 0 -18 10 -4 10
-2 19 5 22 14 4 6 22 -9 22 -6 0 -8 -4 -5 -8 2 -4 1 -13 -3 -20 -5 -9 -12 -9
-27 3 -18 13 -18 14 6 9 20 -5 22 -3 10 5 -11 8 -12 11 -2 11 7 0 11 4 7 9 -3
5 0 13 6 17 8 5 9 3 4 -7 -5 -8 -5 -11 0 -7 4 4 13 3 20 -2 8 -7 12 -5 12 5 0
8 -4 12 -8 10 -4 -3 -10 2 -13 11 -8 22 -8 26 3 19 5 -3 13 0 17 6 4 8 3 9 -4
5 -7 -4 -12 -2 -12 3 0 6 5 11 11 11 8 0 7 5 -2 16 -10 13 -10 17 0 23 9 6 10
14 3 27 -10 19 -12 26 -12 45 0 5 -4 8 -9 4 -5 -3 -13 0 -17 6 -5 8 -9 8 -14
-1 -5 -8 -7 -3 -7 13 1 14 4 25 7 25 19 -1 30 3 30 13 0 5 -4 7 -10 4 -6 -3
-7 1 -4 9 3 9 10 16 14 16 5 0 7 8 5 18 -2 9 -4 19 -4 22 -1 3 -5 -2 -11 -10
-5 -8 -12 -11 -16 -7 -4 3 4 15 16 25 16 13 20 21 12 26 -7 4 -12 1 -12 -6 0
-8 -5 -6 -11 5 -8 14 -7 24 5 43 19 28 23 29 23 9 0 -8 -4 -12 -8 -10 -4 3
-10 -2 -13 -11 -10 -26 -7 -28 14 -9 11 10 17 21 15 26 -3 4 5 15 17 25 13 9
16 14 6 11 -24 -8 -31 4 -10 19 13 9 20 10 32 1 13 -11 13 -10 1 6 -10 13 -17
15 -27 6 -7 -6 -17 -8 -23 -5 -5 3 -8 -2 -7 -11 3 -17 -10 -33 -26 -33 -5 0
-8 5 -8 11 0 5 5 7 10 4 6 -3 11 -1 11 4 3 21 4 26 12 39 6 8 0 15 -15 21 -18
8 -19 10 -5 10 10 1 16 5 12 10 -3 5 -1 12 4 16 6 3 8 -4 6 -15 -2 -11 0 -18
5 -15 5 3 7 -4 5 -16 -4 -17 -2 -19 11 -8 13 10 13 14 -1 29 -11 12 -13 20 -6
25 6 3 11 1 11 -6 0 -7 3 -9 6 -6 4 4 1 14 -7 24 -12 15 -12 16 2 11 9 -4 16
-1 16 6 0 7 -8 13 -18 13 -12 1 -16 -4 -14 -18 3 -12 0 -17 -7 -13 -6 4 -17
-1 -25 -11 -7 -11 -13 -15 -13 -11 0 4 10 21 21 38 l22 30 -24 -6 c-13 -3 -18
-3 -11 0 6 3 10 10 7 15 -4 5 1 6 9 3 9 -3 16 -1 16 5 0 6 -5 11 -12 11 -6 0
-9 2 -6 5 3 3 13 3 22 -1 11 -4 13 -10 7 -18 -7 -8 -4 -12 12 -13 12 -1 17 1
12 5 -21 15 -15 32 9 28 19 -3 23 -1 19 11 -3 8 -9 11 -12 6 -7 -10 -37 -10
-46 -1 -4 4 -14 4 -23 1 -14 -5 -14 -3 1 9 10 7 17 18 15 23 -1 6 5 21 15 35
9 13 18 19 18 12 3 -24 4 -27 27 -59 12 -17 22 -38 22 -47 0 -9 4 -16 8 -16 8
0 24 -27 32 -55 2 -5 10 -16 17 -24 8 -7 11 -21 8 -29 -3 -9 -3 -13 1 -9 4 4
12 -3 19 -16 7 -12 26 -48 44 -79 18 -32 30 -58 27 -58 -4 0 3 -9 15 -21 12
-12 18 -27 14 -37 -3 -9 -3 -13 1 -9 4 4 12 -3 19 -16 7 -12 24 -43 39 -70 15
-26 24 -53 20 -59 -4 -6 -3 -8 2 -5 6 3 21 -15 34 -41 13 -26 28 -53 34 -61 6
-7 11 -20 12 -29 2 -8 7 -18 12 -21 16 -10 71 -128 64 -136 -4 -5 -1 -5 6 -1
11 6 17 -5 13 -26 0 -5 4 -8 10 -8 6 0 8 -7 5 -16 -3 -8 -2 -13 3 -10 7 5 53
-66 48 -75 -1 -2 0 -3 2 -2 6 3 31 -25 31 -34 0 -8 21 -13 67 -16 12 0 20 -4
17 -8 -2 -4 8 -7 24 -8 53 -1 62 -2 62 -10 0 -4 9 -18 20 -31 11 -12 17 -27
13 -33 -3 -6 -1 -7 5 -3 9 5 8 15 -4 38 -9 16 -11 27 -5 24 6 -4 11 -2 11 3 0
6 4 11 8 11 5 0 9 -7 9 -15 0 -8 -5 -11 -10 -8 -6 3 -7 1 -3 -6 4 -6 12 -8 18
-5 8 5 9 1 4 -11 -7 -18 -6 -18 14 0 24 22 25 26 5 19 -17 -7 -21 21 -5 31 6
3 7 -1 4 -10 -4 -9 -3 -15 2 -14 22 4 35 -2 28 -13 -5 -7 -3 -8 6 -3 9 6 12 4
8 -7 -4 -8 0 -15 7 -15 10 0 11 5 4 19 -6 12 -6 18 1 18 5 0 10 -5 10 -12 0
-6 7 -3 16 8 14 18 15 18 9 -6 -5 -22 -4 -23 5 -7 13 20 8 30 -15 33 -9 1 -12
-2 -9 -8 4 -7 2 -8 -4 -4 -9 5 -9 13 -2 27 13 23 22 25 13 2 -4 -11 -3 -14 5
-9 6 4 20 2 30 -3 14 -7 19 -6 19 4 0 8 -4 12 -8 10 -3 -3 -13 3 -20 13 -13
15 -12 16 3 4 10 -8 19 -9 22 -3 3 5 1 11 -6 13 -6 2 -12 12 -14 21 -1 9 2 15
7 11 5 -3 7 -10 4 -15 -4 -5 -2 -9 3 -9 19 0 21 14 5 33 -18 19 -17 19 5 6 12
-8 20 -20 17 -26 -5 -15 7 -17 21 -3 6 6 10 3 11 -10 1 -11 -2 -18 -8 -15 -5
4 -9 1 -9 -5 0 -7 6 -10 13 -7 6 2 12 11 12 20 0 9 5 16 10 14 6 -1 9 -6 7
-10 -1 -5 2 -6 8 -2 8 5 8 11 0 20 -8 10 -7 16 7 24 17 10 17 10 0 11 -10 0
-16 4 -12 9 3 5 0 13 -6 17 -8 5 -10 0 -6 -17 5 -20 2 -25 -13 -26 -11 -1 -20
3 -20 8 0 6 4 8 9 4 5 -3 11 5 13 17 2 16 9 22 21 20 18 -3 20 17 2 31 -6 5
-4 7 5 4 8 -2 14 -10 12 -16 -1 -6 3 -11 9 -11 8 0 7 -6 -2 -17 -12 -16 -12
-17 2 -6 9 7 19 9 23 5 5 -4 -2 11 -14 33 -14 25 -18 41 -11 43 6 2 8 9 5 14
-4 6 -2 8 3 5 6 -4 14 4 17 18 4 14 10 24 14 24 25 -4 34 2 23 15 -8 10 -8 16
2 25 8 6 18 7 22 3 5 -4 5 -1 1 6 -6 10 -11 10 -22 1 -14 -12 -14 -12 -18 27
-1 6 -7 19 -15 28 -7 9 -10 16 -6 16 4 0 2 7 -5 15 -11 13 -10 14 1 10 10 -4
15 2 16 15 1 11 -2 18 -7 15 -5 -3 -12 0 -16 6 -4 7 -3 9 4 5 6 -3 13 -2 17 3
3 5 15 8 26 6 16 -3 18 -1 10 9 -9 10 -8 15 5 20 15 6 14 9 -6 31 -24 25 -16
35 10 13 12 -11 12 -10 1 5 -7 9 -11 17 -7 17 4 0 0 13 -9 29 -9 19 -11 32 -5
36 6 3 10 1 10 -6 0 -7 3 -9 6 -6 4 4 2 13 -5 21 -9 11 -8 15 5 20 15 6 15 8
-1 26 -14 16 -21 17 -32 8 -10 -8 -17 -8 -26 1 -9 10 -9 11 4 6 11 -4 15 1 15
20 0 15 -5 24 -11 21 -6 -2 -11 7 -11 19 0 13 4 21 8 19 4 -3 8 0 8 5 0 6 4
11 9 11 5 0 8 -11 7 -24 -2 -18 1 -22 16 -18 18 4 18 5 1 19 -17 14 -17 14 2
9 18 -6 19 -5 3 7 -14 11 -15 16 -5 27 9 10 9 13 0 17 -7 3 -13 9 -13 15 0 6
7 7 16 4 8 -3 13 -2 9 3 -3 5 1 11 7 14 7 3 -7 4 -32 2 -25 -2 -39 -1 -32 2
10 4 10 8 0 21 -10 12 -7 12 15 -2 15 -10 28 -16 28 -12 1 3 2 9 3 14 3 18 18
32 29 26 7 -4 8 -3 4 2 -5 5 -12 9 -15 9 -23 1 -32 17 -21 38 9 16 9 22 0 25
-6 2 -11 8 -11 13 0 6 5 7 10 4 6 -3 10 -2 10 4 0 6 -14 9 -32 7 -30 -4 -31
-3 -13 10 10 8 15 14 11 14 -5 0 -4 6 0 13 8 11 9 20 5 52 -1 6 -5 4 -10 -4
-6 -9 -11 -10 -15 -2 -4 6 -2 11 3 11 6 0 11 7 11 16 0 8 -4 13 -8 10 -5 -3
-9 1 -9 9 0 19 16 8 27 -19 7 -17 9 -13 6 16 -2 36 -16 67 -16 38 0 -7 -3 -11
-6 -8 -3 4 0 16 6 29 10 18 10 21 -2 17 -10 -4 -14 1 -14 17 0 13 4 21 8 19 4
-3 8 0 8 5 0 6 4 11 9 11 5 0 8 -19 6 -42 -3 -31 -1 -38 7 -27 8 11 9 11 4 -3
-7 -24 6 -23 21 2 11 16 10 18 -1 14 -8 -3 -17 -1 -21 5 -3 6 1 11 11 11 16 0
16 1 -2 16 -19 15 -19 16 1 10 18 -6 19 -5 3 7 -14 11 -15 16 -5 27 9 10 9 13
0 17 -7 3 -13 9 -13 15 0 6 7 7 16 4 8 -3 13 -2 9 3 -3 5 1 12 7 15 7 3 4 4
-7 1 -16 -4 -21 0 -21 15 0 11 7 20 16 21 10 0 9 3 -5 8 -19 8 -18 8 5 21 23
12 23 13 4 29 -20 16 -34 79 -16 67 6 -3 13 -2 17 4 4 6 10 8 15 5 5 -3 11 -1
14 4 3 4 -4 8 -16 7 -15 -1 -22 6 -25 23 -3 21 -1 22 13 10 16 -13 16 -12 3 9
-18 29 -28 28 -24 -3 1 -14 -2 -28 -7 -31 -4 -3 -6 -10 -3 -15 4 -5 1 -9 -4
-9 -13 0 -15 17 -3 24 5 3 8 15 6 28 -4 34 -4 34 -13 19 -6 -9 -11 -10 -15 -2
-4 6 -2 11 3 11 6 0 11 7 11 16 0 8 -4 13 -8 10 -5 -3 -9 1 -9 9 0 19 16 8 27
-19 7 -17 9 -13 6 16 -2 36 -16 67 -16 38 0 -7 -3 -11 -6 -8 -3 4 0 16 6 29
10 18 10 21 -2 17 -10 -4 -14 1 -14 17 0 13 4 21 8 19 4 -3 8 0 8 5 0 6 4 11
9 11 5 0 8 -19 6 -42 -3 -31 -1 -38 7 -27 8 11 9 11 4 -3 -7 -24 6 -23 21 2
11 16 10 18 -1 14 -8 -3 -17 -1 -21 5 -3 6 1 11 11 11 16 0 16 1 -2 16 -19 15
-19 16 1 10 18 -6 19 -5 3 7 -14 11 -15 16 -5 27 9 10 9 13 0 17 -7 3 -13 9
-13 15 0 6 7 7 16 4 8 -3 13 -2 9 3 -3 5 1 11 7 14 7 3 -7 4 -32 2 -25 -2 -39
-1 -32 2 10 4 10 8 0 21 -11 13 -8 12 14 -2 17 -11 28 -13 33 -7 3 6 3 11 -1
11 -3 0 -1 7 6 15 7 8 17 12 23 8 6 -3 7 -1 3 6 -4 6 -11 9 -16 6 -10 -6 -23
12 -27 38 -2 10 1 15 7 12 5 -3 10 -1 10 4 0 6 -4 11 -10 11 -5 0 -10 5 -10
11 0 5 5 7 10 4 6 -3 10 -2 10 4 0 6 -14 9 -32 7 -28 -3 -30 -2 -15 9 9 6 14
15 10 19 -4 4 2 9 14 12 21 6 39 32 28 42 -3 3 -5 0 -5 -7 0 -7 -5 -9 -10 -6
-8 5 -7 11 0 21 7 7 10 19 7 26 -4 8 -6 7 -6 -4 -1 -18 -37 -43 -44 -31 -2 5
-3 23 -3 41 1 17 -2 32 -5 32 -3 0 -4 11 -2 24 5 22 3 23 -57 22 -34 -1 -64 2
-66 6 -3 5 -10 6 -15 2 -16 -10 -79 -10 -79 -1 0 5 -9 5 -20 2 -14 -5 -20 -2
-20 10 0 17 30 17 42 0 4 -5 6 1 5 13 -1 13 -11 28 -22 33 -18 9 -19 9 -3 -4
16 -13 15 -14 -15 -14 -22 -1 -26 1 -14 6 10 4 18 10 18 14 -1 4 -1 8 0 10 8
30 5 56 -8 61 -13 5 -14 4 -3 -9 8 -10 9 -15 2 -15 -6 0 -9 -7 -6 -15 4 -8 2
-15 -3 -15 -5 0 -9 15 -10 33 0 17 -1 46 -2 62 l-1 30 -65 -1 c-35 -1 -63 2
-60 6 2 3 -9 4 -26 2 -21 -3 -29 0 -29 11 0 9 -4 18 -9 22 -6 3 -8 -7 -5 -22
3 -17 1 -23 -4 -15 -5 7 -8 32 -7 57 1 25 -1 45 -4 46 -3 1 -30 2 -58 3 -42 2
-53 0 -54 -13z m181 -322 c0 -5 -4 -8 -10 -4 -5 3 -16 -8 -25 -24 -9 -19 -11
-32 -5 -36 6 -4 8 -11 5 -16 -14 -21 -14 -51 -1 -46 10 4 13 -3 11 -24 -3 -29
-15 -54 -15 -30 0 7 -5 9 -12 5 -7 -4 -4 3 7 16 16 19 17 22 3 17 -11 -4 -15
-1 -13 11 1 9 -3 23 -9 31 -8 11 -8 13 1 8 10 -6 12 37 3 78 -1 6 -2 13 -1 18
2 11 61 8 61 -4z m50 -25 c0 -1 -11 0 -24 1 -17 2 -23 -2 -22 -14 2 -25 36
-44 36 -20 0 5 -4 7 -10 4 -5 -3 -10 1 -10 9 0 20 2 20 47 -5 21 -11 33 -16
27 -9 -9 8 -9 19 -1 40 l11 28 16 -21 c12 -16 16 -43 16 -97 l-1 -75 -68 -3
c-54 -2 -67 0 -61 10 6 11 5 11 -8 0 -14 -11 -16 -9 -14 18 0 16 6 30 13 30 6
0 14 4 17 8 3 5 -5 8 -17 8 -16 -1 -22 5 -22 21 0 11 -3 24 -7 28 -9 10 13 56
24 49 4 -3 11 1 14 10 5 13 8 12 25 -2 10 -9 19 -17 19 -18z m30 -6 c0 -4 -8
-8 -17 -7 -12 0 -13 2 -5 6 10 4 9 10 -5 27 l-18 21 23 -19 c12 -11 22 -23 22
-28z m385 -88 c3 -5 1 -10 -4 -10 -6 0 -11 5 -11 10 0 6 2 10 4 10 3 0 8 -4
11 -10z m-25 -9 c0 -6 -4 -12 -8 -15 -5 -3 -9 1 -9 9 0 8 4 15 9 15 4 0 8 -4
8 -9z m13 -76 c4 -8 1 -17 -5 -21 -7 -4 -8 -3 -4 4 4 8 0 12 -11 12 -15 0 -16
2 -3 10 19 12 17 13 23 -5z m-558 -16 c-4 -5 -14 -8 -23 -8 -15 1 -15 2 1 6 9
2 14 9 11 15 -4 7 -2 8 5 4 6 -4 9 -12 6 -17z m33 -46 c2 -37 1 -38 -34 -39
-19 0 -30 2 -23 6 6 4 7 10 2 13 -5 3 -15 2 -23 -4 -25 -15 -36 -10 -12 7 12
8 26 13 31 10 5 -3 15 2 22 11 12 14 12 16 -2 11 -9 -3 -22 -2 -30 4 -11 8
-11 9 3 5 9 -3 24 0 34 8 25 18 30 13 32 -32z m-88 7 c0 -5 -2 -10 -4 -10 -3
0 -8 5 -11 10 -3 6 -1 10 4 10 6 0 11 -4 11 -10z m629 -14 c8 -10 9 -16 1 -21
-6 -3 -7 -11 -4 -17 4 -6 -4 -3 -18 8 -19 14 -23 22 -16 32 13 16 23 15 37 -2z
m-352 -79 c0 -7 -9 -14 -20 -14 -19 -2 -19 -2 -1 12 11 8 19 15 20 15 0 0 1
-6 1 -13z m333 -2 c-7 -8 -17 -15 -23 -15 -6 0 -2 7 9 15 25 19 30 19 14 0z
m-350 -37 c0 7 8 12 18 11 10 0 12 -3 4 -6 -6 -2 -10 -8 -8 -12 8 -13 -28 -8
-41 5 -21 21 -15 29 7 9 11 -10 20 -13 20 -7z m365 4 c-10 -11 -35 -10 -42 0
-3 6 -1 8 5 4 6 -3 13 -2 17 4 4 6 11 8 16 4 6 -3 8 -9 4 -12z m-1050 -201 c3
-5 1 -12 -5 -16 -5 -3 -10 1 -10 9 0 18 6 21 15 7z m1025 -20 c0 -6 -4 -12 -8
-15 -5 -3 -9 1 -9 9 0 8 4 15 9 15 4 0 8 -4 8 -9z m-1009 -44 c-10 -9 -11 -8
-5 6 3 10 9 15 12 12 3 -3 0 -11 -7 -18z m1020 -28 c8 -15 8 -19 0 -15 -6 4
-11 2 -11 -3 0 -6 -4 -11 -8 -11 -5 0 -9 7 -9 15 0 8 4 12 9 9 4 -3 8 -1 8 5
0 5 -6 12 -12 14 -10 4 -10 6 -1 6 7 1 17 -9 24 -20z m20 -66 c-12 -8 -19 -18
-16 -23 6 -9 -25 -23 -33 -15 -3 3 0 5 6 5 7 0 12 5 12 11 0 5 -6 7 -12 3 -8
-4 -10 -3 -5 2 5 5 13 10 18 10 22 3 23 5 10 13 -22 14 -4 33 21 20 l20 -11
-21 -15z m-21 -63 c-24 -15 -36 -11 -14 4 10 8 21 12 24 10 2 -3 -2 -9 -10
-14z m0 -25 c-7 -8 -17 -15 -23 -15 -6 0 -2 7 9 15 25 19 30 19 14 0z m15 -33
c-10 -11 -35 -10 -42 0 -3 6 -1 8 5 4 6 -3 13 -2 17 4 4 6 11 8 16 4 6 -3 8
-9 4 -12z m-1155 -172 c0 -17 -26 -29 -40 -18 -13 8 -12 9 2 5 22 -7 30 3 16
20 -8 11 -7 12 6 7 9 -3 16 -10 16 -14z m1130 -49 c0 -6 -4 -12 -8 -15 -5 -3
-9 1 -9 9 0 8 4 15 9 15 4 0 8 -4 8 -9z m-1160 -11 c0 -5 -5 -10 -11 -10 -5 0
-7 5 -4 10 3 6 8 10 11 10 2 0 4 -4 4 -10z m1182 -98 c-4 -11 -6 -11 -13 -1
-4 7 -5 17 -3 21 3 4 -3 8 -13 8 -15 0 -15 2 -4 9 18 11 42 -16 33 -37z m7
-36 c8 -10 9 -16 1 -21 -6 -3 -7 -11 -4 -17 4 -6 -4 -3 -18 8 -19 14 -23 22
-16 32 13 16 23 15 37 -2z m-19 -81 c-7 -8 -17 -15 -23 -15 -6 0 -2 7 9 15 25
19 30 19 14 0z m15 -33 c-10 -11 -35 -10 -42 0 -3 6 -1 8 5 4 6 -3 13 -2 17 4
4 6 11 8 16 4 6 -3 8 -9 4 -12z m10 -154 c-8 -5 -13 -13 -10 -18 3 -5 1 -11
-5 -15 -7 -4 -7 -12 0 -24 5 -10 6 -21 3 -25 -3 -3 0 -6 8 -6 10 -1 8 -4 -4
-11 -18 -10 -18 -12 3 -34 18 -20 19 -23 5 -29 -9 -3 -13 -11 -9 -17 3 -6 -5
-3 -20 6 -32 21 -32 24 -2 21 16 -2 23 1 19 10 -2 7 -11 10 -18 8 -7 -3 -16
-1 -20 5 -3 6 0 9 8 5 8 -3 14 2 14 11 0 9 -6 14 -12 11 -6 -2 -12 2 -12 9 0
7 5 11 12 9 6 -3 11 5 12 16 1 11 -2 18 -7 15 -5 -3 -12 0 -16 7 -4 7 -4 10 1
6 4 -4 15 -3 22 4 12 10 11 15 -9 31 -13 10 -18 16 -11 13 6 -4 18 0 25 8 9
10 17 11 26 3 11 -9 10 -12 -3 -19z m-1180 -96 c-2 -3 0 -13 6 -23 7 -15 6
-21 -6 -25 -11 -5 -13 -10 -5 -19 13 -15 2 -47 -13 -38 -6 4 -8 0 -4 -10 3
-10 2 -17 -3 -17 -16 0 -11 30 5 36 15 6 21 25 8 23 -27 -4 -31 3 -12 22 22
22 21 40 -2 47 -12 3 -12 2 0 -6 12 -9 12 -13 2 -26 -8 -9 -18 -16 -24 -16 -6
0 -3 6 8 13 13 10 15 16 6 21 -16 10 -4 25 19 23 10 -1 17 -3 15 -5z m-41
-162 c-6 -6 -10 -3 -10 10 0 13 4 16 10 10 7 -7 7 -13 0 -20z m1186 -51 c0 -5
-8 -9 -17 -8 -11 0 -13 3 -5 6 6 2 9 10 6 15 -4 7 -2 8 4 4 7 -4 12 -11 12
-17z m-1186 -11 c-5 -7 -2 -9 9 -5 11 4 14 2 10 -9 -3 -7 -9 -14 -13 -14 -10
0 -20 26 -13 34 10 10 15 7 7 -6z m1197 -25 c13 -16 12 -17 -3 -4 -10 7 -18
15 -18 17 0 8 8 3 21 -13z m-1211 -13 c0 -5 -5 -10 -11 -10 -5 0 -7 5 -4 10 3
6 8 10 11 10 2 0 4 -4 4 -10z m1220 -23 c0 -6 -3 -7 -7 -4 -3 4 -15 0 -25 -10
-11 -9 -18 -11 -18 -5 0 7 5 12 10 12 6 0 9 3 9 8 -3 16 2 21 16 16 8 -4 15
-11 15 -17z m-63 -49 c-3 -8 -6 -5 -6 6 -1 11 2 17 5 13 3 -3 4 -12 1 -19z
m-1157 -28 c0 -5 -4 -10 -10 -10 -5 0 -10 5 -10 10 0 6 5 10 10 10 6 0 10 -4
10 -10z m1144 1 c3 -5 -1 -11 -9 -14 -9 -4 -12 -1 -8 9 6 16 10 17 17 5z
m-1169 -21 c4 -6 11 -7 17 -4 7 4 8 2 4 -5 -4 -6 -12 -9 -17 -6 -5 4 -9 -1 -9
-9 0 -8 -4 -18 -10 -21 -7 -4 -7 2 0 19 6 17 6 26 -3 30 -9 3 -9 5 0 5 6 1 15
-4 18 -9z m1119 -55 c-4 -8 -11 -15 -16 -15 -6 0 -5 6 2 15 7 8 14 15 16 15 2
0 1 -7 -2 -15z m-1210 -23 c3 -5 -1 -9 -9 -9 -8 0 -12 4 -9 9 3 4 7 8 9 8 2 0
6 -4 9 -8z m36 -22 c0 -5 -4 -10 -10 -10 -5 0 -10 5 -10 10 0 6 5 10 10 10 6
0 10 -4 10 -10z m4 -28 c3 -5 -1 -9 -9 -9 -8 0 -15 4 -15 9 0 4 4 8 9 8 6 0
12 -4 15 -8z m-124 -12 c0 -5 -5 -10 -11 -10 -5 0 -7 5 -4 10 3 6 8 10 11 10
2 0 4 -4 4 -10z m1194 -5 c-4 -8 -8 -15 -10 -15 -2 0 -4 7 -4 15 0 8 4 15 10
15 5 0 7 -7 4 -15z m-1148 -30 c1 -8 -3 -18 -8 -22 -7 -3 -8 -1 -4 5 4 7 0 12
-11 13 -17 1 -17 2 0 6 10 3 14 10 11 16 -4 7 -3 8 1 4 5 -4 10 -14 11 -22z
m1029 15 c3 -5 1 -10 -4 -10 -6 0 -11 5 -11 10 0 6 2 10 4 10 3 0 8 -4 11 -10z
m105 -22 c0 -6 -6 -5 -15 2 -8 7 -15 14 -15 16 0 2 7 1 15 -2 8 -4 15 -11 15
-16z m-1216 0 c-3 -5 -9 -6 -14 -3 -4 3 -10 0 -12 -7 -3 -8 -6 -7 -10 3 -4 11
1 15 17 15 13 0 21 -4 19 -8z m-84 -8 c0 -5 -4 -10 -10 -10 -5 0 -10 5 -10 10
0 6 5 10 10 10 6 0 10 -4 10 -10z m-36 -12 c-5 -8 11 -12 31 -8 6 1 6 -2 2 -6
-11 -12 -37 -14 -37 -3 0 5 -5 9 -11 9 -5 0 -7 -5 -3 -12 4 -7 3 -8 -4 -4 -15
9 -5 33 13 33 8 0 12 -4 9 -9z"/>
<path d="M3590 3556 c0 -8 4 -17 9 -20 10 -7 23 19 14 28 -11 11 -23 6 -23 -8z"/>
<path d="M3467 3545 c-4 -8 -2 -17 4 -21 6 -3 8 -12 5 -20 -3 -7 0 -16 6 -20
7 -5 8 -2 3 6 -6 10 -4 12 8 7 11 -4 14 -2 11 8 -3 7 -12 16 -21 19 -12 5 -13
9 -3 21 7 9 8 15 2 15 -5 0 -12 -7 -15 -15z"/>
<path d="M3546 3508 c3 -5 10 -6 15 -3 13 9 11 12 -6 12 -8 0 -12 -4 -9 -9z"/>
<path d="M3490 3440 c-9 -6 -10 -10 -3 -10 6 0 15 5 18 10 8 12 4 12 -15 0z"/>
<path d="M3395 3350 c-3 -5 -1 -10 4 -10 6 0 11 5 11 10 0 6 -2 10 -4 10 -3 0
-8 -4 -11 -10z"/>
<path d="M3379 3313 c-13 -17 -13 -17 5 -3 18 14 19 13 13 -3 -4 -11 -3 -16 3
-12 12 8 13 35 1 35 -5 0 -15 -8 -22 -17z"/>
<path d="M3932 3311 c2 -7 7 -12 11 -12 12 1 9 15 -3 20 -7 2 -11 -2 -8 -8z"/>
<path d="M3932 2351 c2 -7 7 -12 11 -12 12 1 9 15 -3 20 -7 2 -11 -2 -8 -8z"/>
<path d="M3915 3889 c-4 -6 -5 -12 -2 -15 2 -3 7 2 10 11 7 17 1 20 -8 4z"/>
<path d="M3677 3873 c3 -7 6 -13 8 -13 2 0 5 6 8 13 3 8 -1 14 -8 14 -7 0 -11
-6 -8 -14z"/>
<path d="M3460 3870 c-9 -6 -10 -10 -3 -10 6 0 15 5 18 10 8 12 4 12 -15 0z"/>
<path d="M3644 3869 c-4 -7 -3 -9 4 -5 5 3 13 0 15 -6 4 -9 6 -10 6 -1 1 17
-16 25 -25 12z"/>
<path d="M3470 3850 c-12 -7 -10 -9 7 -7 12 0 19 5 17 9 -6 10 -6 10 -24 -2z"/>
<path d="M3793 3837 c-2 -16 0 -18 6 -8 5 7 14 10 20 7 6 -4 11 -5 11 -2 0 3
-8 10 -18 15 -14 8 -18 5 -19 -12z"/>
<path d="M3690 3841 c0 -8 -7 -11 -17 -6 -15 5 -16 4 -5 -6 9 -10 15 -10 24
-1 6 6 9 15 5 19 -4 3 -7 1 -7 -6z"/>
<path d="M3375 3790 c-10 -16 7 -31 23 -21 10 6 10 10 -2 20 -10 9 -16 9 -21
1z"/>
<path d="M3395 3751 c-3 -5 -2 -12 3 -15 5 -3 9 1 9 9 0 17 -3 19 -12 6z"/>
<path d="M3694 3746 c1 -8 5 -18 8 -22 4 -3 5 1 4 10 -1 8 -5 18 -8 22 -4 3
-5 -1 -4 -10z"/>
<path d="M2650 3729 c0 -5 -5 -7 -12 -3 -7 4 -8 3 -4 -4 4 -6 13 -9 21 -6 8 4
12 10 9 15 -7 12 -14 11 -14 -2z"/>
<path d="M3679 3718 c-5 -18 -6 -39 -2 -34 4 3 12 1 20 -6 11 -8 12 -7 7 6 -3
9 -10 16 -16 16 -5 0 -6 5 -3 10 3 6 4 10 1 10 -3 0 -6 -1 -7 -2z"/>
<path d="M2655 3670 c3 -5 8 -10 11 -10 2 0 4 5 4 10 0 6 -5 10 -11 10 -5 0
-7 -4 -4 -10z"/>
<path d="M1310 3650 c0 -5 5 -10 11 -10 5 0 7 5 4 10 -3 6 -8 10 -11 10 -2 0
-4 -4 -4 -10z"/>
<path d="M2677 3649 c-9 -6 -15 -14 -12 -20 10 -14 25 -11 25 7 0 9 5 12 12 8
7 -4 8 -3 4 4 -8 14 -6 14 -29 1z"/>
<path d="M3710 3650 c0 -5 5 -10 11 -10 5 0 7 5 4 10 -3 6 -8 10 -11 10 -2 0
-4 -4 -4 -10z"/>
<path d="M1330 3616 c0 -2 7 -9 15 -16 13 -11 14 -10 9 4 -5 14 -24 23 -24 12z"/>
<path d="M2695 3611 c-3 -6 -12 -8 -18 -4 -8 5 -8 2 0 -9 7 -8 9 -19 5 -23 -4
-5 -1 -5 6 -1 7 4 10 11 7 16 -3 4 1 10 7 13 7 2 10 7 7 11 -4 4 -10 2 -14 -3z"/>
<path d="M1370 3590 c0 -5 5 -10 11 -10 5 0 7 5 4 10 -3 6 -8 10 -11 10 -2 0
-4 -4 -4 -10z"/>
<path d="M2716 3592 c-3 -5 1 -9 9 -9 8 0 12 4 9 9 -3 4 -7 8 -9 8 -2 0 -6 -4
-9 -8z"/>
<path d="M1387 3553 c3 -7 8 -13 12 -13 4 0 8 6 8 13 0 8 -6 14 -13 14 -7 0
-10 -6 -7 -14z"/>
<path d="M3929 3553 c-3 -18 -5 -63 -2 -63 1 0 7 10 14 21 8 17 8 20 -1 14 -9
-5 -10 -1 -5 14 3 11 4 21 1 21 -3 0 -7 -3 -7 -7z"/>
<path d="M2703 3537 c0 -7 9 -13 19 -13 10 0 18 1 18 3 0 1 -8 7 -18 12 -13 7
-19 6 -19 -2z"/>
<path d="M1420 3530 c-8 -5 -12 -12 -9 -15 4 -3 12 1 19 10 14 17 11 19 -10 5z"/>
<path d="M2738 3473 c10 -4 10 -8 1 -19 -9 -11 -9 -14 1 -14 7 0 10 -7 7 -15
-4 -8 -2 -17 3 -20 5 -3 7 9 5 27 -4 24 -2 29 7 20 7 -7 16 -12 21 -12 5 0 -2
9 -16 20 -14 11 -29 20 -34 19 -4 0 -2 -3 5 -6z"/>
<path d="M1470 3450 c0 -5 5 -10 11 -10 5 0 7 -5 3 -12 -4 -7 -3 -8 5 -4 9 6
9 11 0 22 -14 17 -19 18 -19 4z"/>
<path d="M3943 3424 c0 -9 5 -10 17 -4 10 5 20 7 24 5 3 -3 4 -2 1 2 -10 12
-42 10 -42 -3z"/>
<path d="M2770 3412 c0 -5 8 -16 18 -25 15 -14 19 -14 19 -3 0 8 -5 14 -11 13
-6 -1 -10 4 -8 11 1 6 -2 12 -8 12 -5 0 -10 -4 -10 -8z"/>
<path d="M1520 3390 c-9 -6 -10 -10 -3 -10 6 0 15 5 18 10 8 12 4 12 -15 0z"/>
<path d="M2771 3369 c7 -13 12 -28 11 -32 -1 -5 2 -6 8 -2 11 7 -2 39 -21 51
-6 4 -6 -3 2 -17z"/>
<path d="M1533 3367 c-4 -6 -1 -7 7 -2 10 6 12 4 7 -8 -9 -23 0 -22 12 1 8 14
6 19 -5 19 -8 0 -18 -5 -21 -10z"/>
<path d="M3976 3343 c-6 -14 -5 -15 5 -6 7 7 10 15 7 18 -3 3 -9 -2 -12 -12z"/>
<path d="M1615 3269 c-4 -6 -5 -12 -2 -15 2 -3 7 2 10 11 7 17 1 20 -8 4z"/>
<path d="M1627 3246 c-4 -10 -1 -13 8 -9 8 3 12 9 9 14 -7 12 -11 11 -17 -5z"/>
<path d="M2853 3234 c-3 -8 -2 -19 3 -24 5 -5 9 1 9 16 0 28 -3 30 -12 8z"/>
<path d="M1673 3205 c0 -8 4 -12 9 -9 5 3 6 10 3 15 -9 13 -12 11 -12 -6z"/>
<path d="M2830 3189 c0 -5 5 -7 10 -4 6 3 10 8 10 11 0 2 -4 4 -10 4 -5 0 -10
-5 -10 -11z"/>
<path d="M1716 3157 c3 -10 9 -15 12 -12 3 3 0 11 -7 18 -10 9 -11 8 -5 -6z"/>
<path d="M2854 3138 c3 -13 5 -24 7 -25 1 -2 2 -7 3 -13 0 -5 4 -10 9 -10 4 0
13 0 19 0 7 0 2 8 -11 17 -23 16 -23 17 -5 24 17 7 17 8 1 8 -10 1 -15 6 -12
11 3 6 1 10 -4 10 -6 0 -9 -10 -7 -22z"/>
<path d="M3925 3150 c-3 -5 -1 -10 4 -10 6 0 11 5 11 10 0 6 -2 10 -4 10 -3 0
-8 -4 -11 -10z"/>
<path d="M1760 3070 c-9 -6 -10 -10 -3 -10 6 0 15 5 18 10 8 12 4 12 -15 0z"/>
<path d="M2885 3070 c-3 -5 -1 -10 4 -10 6 0 11 5 11 10 0 6 -2 10 -4 10 -3 0
-8 -4 -11 -10z"/>
<path d="M3956 3068 c3 -5 10 -6 15 -3 13 9 11 12 -6 12 -8 0 -12 -4 -9 -9z"/>
<path d="M1775 3051 c-6 -11 13 -26 22 -17 4 3 1 6 -6 6 -7 0 -9 5 -6 10 3 6
4 10 1 10 -3 0 -7 -4 -11 -9z"/>
<path d="M2910 3049 c0 -5 5 -7 10 -4 6 3 10 8 10 11 0 2 -4 4 -10 4 -5 0 -10
-5 -10 -11z"/>
<path d="M1797 3009 c7 -7 15 -10 18 -7 3 3 -2 9 -12 12 -14 6 -15 5 -6 -5z"/>
<path d="M1855 2949 c-4 -6 -4 -13 -1 -17 10 -9 46 -10 40 0 -4 5 -13 7 -21 4
-11 -4 -13 -2 -9 9 6 17 0 20 -9 4z"/>
<path d="M2950 2936 c0 -2 7 -7 16 -10 8 -3 12 -2 9 4 -6 10 -25 14 -25 6z"/>
<path d="M3970 2900 c6 -11 13 -20 16 -20 2 0 0 9 -6 20 -6 11 -13 20 -16 20
-2 0 0 -9 6 -20z"/>
<path d="M1906 2886 c3 -8 13 -17 22 -21 13 -5 13 -2 -3 15 -21 24 -26 25 -19
6z"/>
<path d="M2968 2829 c6 -9 9 -19 5 -22 -3 -4 -3 -7 1 -7 4 0 15 8 24 17 15 15
15 16 1 11 -9 -4 -23 -1 -30 5 -11 10 -11 9 -1 -4z"/>
<path d="M2990 2785 c-10 -12 -9 -16 4 -21 9 -3 14 -10 11 -14 -3 -4 1 -10 8
-13 7 -3 13 3 13 13 0 10 -3 18 -6 18 -20 -2 -30 3 -25 12 4 6 11 8 16 5 5 -4
9 -1 9 4 0 16 -16 13 -30 -4z"/>
<path d="M2020 2735 c0 -5 5 -17 10 -25 5 -8 10 -10 10 -5 0 6 -5 17 -10 25
-5 8 -10 11 -10 5z"/>
<path d="M3030 2711 c0 -6 4 -13 10 -16 6 -3 7 1 4 9 -7 18 -14 21 -14 7z"/>
<path d="M2050 2689 c0 -5 5 -7 10 -4 6 3 10 8 10 11 0 2 -4 4 -10 4 -5 0 -10
-5 -10 -11z"/>
<path d="M3024 2675 c1 -7 8 -21 16 -31 8 -9 16 -25 16 -36 1 -10 3 -20 4 -23
3 -6 7 -22 9 -34 0 -5 9 -12 18 -15 15 -6 15 -5 -1 13 -17 19 -17 21 -2 27 9
3 16 11 16 16 0 6 -6 6 -14 -1 -10 -8 -16 -9 -21 -1 -3 5 0 10 7 10 10 0 10 2
0 9 -8 4 -13 12 -13 17 1 5 -5 17 -13 26 -10 12 -11 18 -3 21 6 2 4 6 -5 9
-10 4 -15 2 -14 -7z"/>
<path d="M3925 2670 c-3 -5 -1 -10 4 -10 6 0 11 5 11 10 0 6 -2 10 -4 10 -3 0
-8 -4 -11 -10z"/>
<path d="M3956 2588 c3 -5 10 -6 15 -3 13 9 11 12 -6 12 -8 0 -12 -4 -9 -9z"/>
<path d="M3954 2518 c1 -13 0 -27 -3 -33 -11 -20 -9 -33 5 -28 9 3 12 15 9 36
-5 27 -4 29 11 16 16 -13 16 -12 3 9 -8 12 -17 22 -20 22 -3 0 -5 -10 -5 -22z"/>
<path d="M2801 2516 c-9 -11 -9 -16 0 -21 8 -6 8 -9 -1 -15 -9 -5 -9 -9 -1
-14 6 -4 11 -2 11 4 0 6 4 9 9 5 16 -10 21 12 6 25 -8 7 -12 16 -9 21 8 14 -2
10 -15 -5z m20 -23 c13 -16 12 -17 -3 -4 -17 13 -22 21 -14 21 2 0 10 -8 17
-17z"/>
<path d="M3076 2517 c3 -10 9 -15 12 -12 3 3 0 11 -7 18 -10 9 -11 8 -5 -6z"/>
<path d="M3108 2513 c7 -3 16 -2 19 1 4 3 -2 6 -13 5 -11 0 -14 -3 -6 -6z"/>
<path d="M3110 2434 c0 -2 9 -8 20 -14 15 -8 18 -8 14 3 -4 11 -34 21 -34 11z"/>
<path d="M3170 2395 c0 -5 5 -17 10 -25 5 -8 10 -10 10 -5 0 6 -5 17 -10 25
-5 8 -10 11 -10 5z"/>
<path d="M3976 2383 c-6 -14 -5 -15 5 -6 7 7 10 15 7 18 -3 3 -9 -2 -12 -12z"/>
<path d="M2815 2229 c-4 -6 -5 -12 -2 -15 2 -3 7 2 10 11 7 17 1 20 -8 4z"/>
<path d="M2785 2191 c-6 -11 9 -23 19 -14 9 9 7 23 -3 23 -6 0 -12 -4 -16 -9z"/>
<path d="M3925 2190 c-3 -5 -1 -10 4 -10 6 0 11 5 11 10 0 6 -2 10 -4 10 -3 0
-8 -4 -11 -10z"/>
<path d="M2835 2179 c-4 -6 -5 -12 -2 -15 2 -3 7 2 10 11 7 17 1 20 -8 4z"/>
<path d="M2797 2159 c-9 -6 -15 -14 -12 -20 10 -15 22 -10 28 11 3 11 4 20 4
20 -1 0 -10 -5 -20 -11z"/>
<path d="M3949 2165 c0 0 -2 -8 -4 -18 -2 -9 1 -14 6 -11 6 3 18 0 27 -7 14
-11 15 -11 5 1 -8 8 -9 18 -3 25 6 7 3 11 -11 11 -10 0 -19 0 -20 -1z"/>
<path d="M2795 2111 c3 -5 1 -12 -3 -15 -10 -6 -9 -36 2 -55 7 -11 4 -11 -14
-1 -18 9 -21 9 -18 -1 2 -7 13 -14 24 -15 18 -3 20 2 20 46 1 28 -3 50 -8 50
-5 0 -7 -4 -3 -9z"/>
<path d="M2815 2011 c-3 -5 -2 -12 3 -15 5 -3 9 1 9 9 0 17 -3 19 -12 6z"/>
<path d="M3945 1867 c1 -12 -2 -29 -6 -38 -6 -11 -4 -21 6 -29 8 -7 12 -16 9
-21 -3 -5 -1 -9 4 -9 5 0 12 9 15 19 4 15 1 18 -12 14 -14 -6 -14 -4 2 14 9
11 17 23 17 28 0 5 -7 0 -15 -11 -15 -19 -16 -19 -13 1 2 11 8 25 13 30 6 6 8
9 6 8 -2 -2 -9 2 -16 7 -8 7 -11 3 -10 -13z"/>
<path d="M3955 1680 c-4 -6 -11 -7 -17 -4 -7 4 -8 2 -4 -4 3 -6 -4 -20 -16
-31 -12 -12 -17 -21 -12 -21 6 0 16 6 23 13 11 10 13 9 8 -6 -4 -11 -3 -16 3
-12 6 4 10 12 9 18 -3 24 1 38 9 33 5 -3 9 1 9 9 0 18 -3 19 -12 5z"/>
<path d="M3926 1588 c3 -5 10 -6 15 -3 13 9 11 12 -6 12 -8 0 -12 -4 -9 -9z"/>
<path d="M2680 1530 c-13 -8 -13 -10 2 -10 9 0 20 5 23 10 8 13 -5 13 -25 0z"/>
<path d="M2711 1517 c-8 -10 -7 -14 2 -14 8 0 14 6 14 14 0 7 -1 13 -2 13 -2
0 -8 -6 -14 -13z"/>
<path d="M3895 1510 c3 -5 8 -10 11 -10 2 0 4 5 4 10 0 6 -5 10 -11 10 -5 0
-7 -4 -4 -10z"/>
<path d="M3805 1473 c2 -10 4 -21 4 -25 1 -5 6 -8 12 -8 8 0 7 6 -2 17 -8 9
-12 18 -11 20 2 3 1 7 -1 10 -3 3 -4 -3 -2 -14z"/>
<path d="M3440 1443 c31 -12 56 -39 52 -53 -2 -8 3 -5 13 8 9 12 24 22 33 22
10 0 13 -3 7 -8 -5 -4 -11 -17 -11 -30 -1 -12 1 -20 5 -17 6 6 7 10 10 36 0 5
6 7 11 4 6 -4 7 -11 4 -17 -4 -6 -2 -8 4 -5 14 10 8 40 -9 43 -8 1 -21 5 -30
9 -10 3 -20 2 -24 -4 -8 -14 -26 -14 -22 0 1 6 -11 13 -28 15 -16 2 -23 0 -15
-3z"/>
<path d="M3450 1410 c0 -5 5 -10 11 -10 5 0 7 5 4 10 -3 6 -8 10 -11 10 -2 0
-4 -4 -4 -10z"/>
<path d="M3670 1379 c0 -5 5 -7 10 -4 6 3 10 8 10 11 0 2 -4 4 -10 4 -5 0 -10
-5 -10 -11z"/>
<path d="M2491 1354 c0 -11 3 -14 6 -6 3 7 2 16 -1 19 -3 4 -6 -2 -5 -13z"/>
<path d="M38 1162 l-38 -3 0 -190 0 -189 40 0 40 0 0 155 0 155 113 -1 c140
-1 147 -6 147 -95 l0 -63 -82 0 c-46 1 -89 1 -95 0 -8 -1 -13 -15 -13 -36 0
-39 -12 -36 145 -36 36 0 81 0 100 0 l35 1 0 107 c0 104 -1 107 -32 149 -19
25 -42 44 -53 44 -85 3 -277 4 -307 2z"/>
<path d="M585 1160 l-70 -5 0 -187 0 -188 42 0 c40 0 43 2 44 28 1 15 1 32 0
38 -1 8 35 12 111 13 122 1 148 -9 148 -56 0 -21 5 -23 43 -23 l43 0 -1 38 c0
21 -9 51 -20 67 -16 24 -20 48 -21 112 -1 80 -2 84 -37 123 l-35 41 -89 2
c-48 1 -119 0 -158 -3z m212 -85 c11 -8 17 -28 18 -61 3 -85 6 -83 -108 -81
l-102 2 -2 65 c-1 36 0 70 2 76 5 16 170 15 192 -1z"/>
<path d="M1128 1162 c-16 -2 -40 -19 -61 -43 l-35 -40 -1 -106 -1 -106 36 -43
35 -44 144 0 143 0 36 40 36 40 0 113 -1 112 -33 37 -33 38 -119 2 c-65 2
-131 2 -146 0z m225 -84 c14 -7 17 -23 17 -101 0 -51 -4 -98 -9 -106 -7 -11
-34 -15 -108 -16 -130 -2 -133 0 -133 118 0 74 3 92 18 103 20 15 186 17 215
2z"/>
<path d="M2170 1162 c-62 -3 -66 -5 -97 -43 -31 -39 -31 -39 -30 -148 2 -107
2 -110 35 -150 l33 -41 144 0 143 0 36 42 36 42 0 110 -1 111 -33 38 c-34 37
-34 38 -117 40 -46 1 -113 1 -149 -1z m196 -87 c14 -10 17 -28 16 -99 0 -118
-4 -122 -125 -121 -124 1 -127 4 -127 111 0 119 2 121 121 121 63 1 104 -4
115 -12z"/>
<path d="M2691 1162 c-59 -3 -66 -6 -97 -40 -19 -20 -34 -44 -35 -52 -1 -17
-1 -180 0 -196 1 -6 15 -29 33 -52 l32 -42 147 0 147 0 36 44 c34 42 36 49 36
114 l0 69 -152 -1 -151 -1 -3 -32 c-3 -37 -11 -35 121 -37 l90 -1 0 -30 c0
-20 -7 -33 -22 -40 -33 -17 -197 -12 -215 6 -18 18 -18 180 0 202 10 12 41 15
150 15 200 0 182 -3 182 37 l0 35 -52 1 c-29 0 -82 1 -118 2 -36 1 -94 1 -129
-1z"/>
<path d="M3288 1125 c-37 -39 -38 -42 -38 -115 l0 -75 168 0 167 0 3 -27 c6
-47 -24 -55 -190 -54 l-148 2 0 -38 0 -38 179 0 180 0 34 43 c32 39 34 48 35
113 l1 71 -122 1 c-239 1 -217 -2 -217 31 0 17 6 33 13 38 6 4 80 9 162 10 83
1 153 2 157 2 3 1 6 17 6 36 0 34 -2 35 -36 35 -21 1 -100 2 -177 3 l-140 2
-37 -40z"/>
<path d="M4352 1156 c-9 -5 -23 -17 -30 -27 -7 -10 -19 -24 -27 -32 -10 -10
-13 -36 -12 -88 l2 -74 165 0 165 0 3 -25 c5 -52 -4 -55 -175 -55 l-158 0 -1
-38 -1 -37 181 1 181 0 33 41 c30 37 32 46 32 114 l0 74 -152 -1 c-84 0 -161
0 -170 0 -21 1 -24 38 -5 62 10 13 36 16 147 17 74 0 145 1 158 1 18 1 22 7
22 36 0 21 -5 35 -12 35 -182 5 -333 3 -346 -4z"/>
<path d="M1549 1153 c-4 -68 1 -284 7 -295 5 -8 21 -29 36 -47 l27 -31 179 0
179 0 -1 38 -1 37 -157 0 c-147 0 -159 1 -171 20 -9 14 -13 58 -12 153 l0 132
-42 0 c-24 0 -43 -3 -44 -7z"/>
<path d="M3075 970 l0 -190 42 0 c38 0 43 3 44 23 0 12 1 97 2 190 l2 167 -45
0 -45 0 0 -190z"/>
<path d="M3766 1068 c1 -51 2 -97 3 -103 1 -5 17 -27 37 -47 30 -33 42 -38 79
-38 48 0 54 -7 50 -62 l-3 -38 47 0 48 0 -2 50 -2 50 51 0 c47 0 53 3 85 42
34 41 35 43 36 140 l1 98 -43 0 c-27 0 -43 -5 -44 -12 0 -7 0 -42 0 -78 1
-107 -3 -110 -130 -110 -129 0 -129 0 -129 119 l0 81 -43 0 -43 0 2 -92z"/>
<path d="M121 650 c-7 -4 -11 -34 -10 -73 1 -58 4 -67 20 -67 13 0 19 7 19 23
0 19 6 22 42 24 23 2 46 7 51 12 12 12 12 60 0 72 -12 12 -107 19 -122 9z m94
-45 c0 -15 -8 -21 -32 -23 -30 -3 -33 -1 -33 23 0 24 3 26 33 23 24 -2 32 -8
32 -23z"/>
<path d="M380 583 c0 -65 2 -73 19 -73 13 0 18 7 17 22 -2 33 55 33 69 1 11
-25 31 -30 38 -10 2 6 0 20 -5 30 -5 10 -5 24 0 35 13 23 -3 62 -25 63 -10 1
-39 2 -65 3 l-48 1 0 -72z m105 22 c0 -15 -8 -21 -32 -23 -18 -2 -33 0 -34 5
0 4 -2 16 -4 26 -3 15 2 18 33 15 29 -2 37 -7 37 -23z"/>
<path d="M680 652 c-8 -3 -18 -10 -22 -16 -12 -18 -9 -101 4 -114 18 -18 113
-15 129 4 15 19 17 100 2 115 -12 12 -88 19 -113 11z m88 -60 c4 -40 -13 -63
-42 -58 -11 3 -24 5 -27 5 -11 1 -19 45 -12 69 5 19 11 23 42 20 33 -3 36 -6
39 -36z"/>
<path d="M920 651 c0 -3 14 -24 30 -45 17 -23 30 -52 30 -69 0 -22 4 -28 18
-25 11 2 17 12 17 28 0 14 12 41 28 61 45 59 28 85 -20 30 l-26 -29 -23 27
c-20 24 -54 38 -54 22z"/>
<path d="M1202 639 c-6 -15 -7 -63 -3 -116 1 -9 20 -13 62 -13 44 0 60 3 56
13 -2 7 -20 12 -43 12 -29 0 -40 5 -42 18 -3 16 23 23 66 18 6 -1 12 4 12 12
0 9 -10 13 -27 12 -37 -2 -53 4 -53 21 0 10 13 14 46 14 67 0 53 24 -15 26
-42 0 -54 -3 -59 -17z"/>
<path d="M1469 646 c-21 -10 -24 -18 -22 -65 1 -62 10 -71 70 -71 54 0 73 8
73 31 0 22 -35 27 -43 6 -3 -8 -16 -13 -29 -11 -12 1 -27 3 -31 3 -5 1 -7 20
-5 44 3 38 6 42 32 45 16 2 32 -2 37 -9 12 -20 39 -19 39 1 0 10 -5 22 -10 25
-20 12 -87 13 -111 1z"/>
<path d="M1706 643 c-5 -11 6 -15 30 -12 14 2 20 -23 19 -71 -1 -42 1 -50 17
-50 15 0 18 9 18 60 0 33 3 59 8 59 22 -4 42 3 42 14 0 17 -128 18 -134 0z"/>
<path d="M1994 625 c-7 -19 -21 -51 -29 -71 -19 -45 -19 -44 4 -44 10 0 21 7
25 15 3 9 18 15 40 15 21 0 36 -6 40 -15 3 -8 14 -15 25 -15 18 0 18 3 -8 65
-32 74 -34 78 -62 82 -15 2 -24 -6 -35 -32z m44 -63 c-28 -5 -31 1 -16 33 l12
28 12 -29 c11 -26 10 -29 -8 -32z"/>
<path d="M2403 647 c-7 -11 1 -18 24 -21 15 -3 18 -12 18 -57 0 -47 3 -54 20
-54 17 0 19 7 19 58 0 56 0 57 28 57 18 0 26 4 22 13 -5 15 -122 18 -131 4z"/>
<path d="M2659 623 c-2 -65 3 -98 15 -105 15 -10 98 -10 114 0 16 11 24 112
10 130 -20 24 -28 11 -28 -48 0 -33 -4 -61 -10 -61 -42 -5 -71 0 -69 14 1 6 1
33 0 60 -1 35 -5 47 -16 47 -10 0 -15 -11 -16 -37z"/>
<path d="M3122 645 c-4 -5 -7 -38 -7 -72 -1 -54 2 -63 17 -63 13 0 18 8 18 28
0 26 3 29 36 30 62 2 62 22 0 24 -28 1 -36 5 -36 20 0 14 8 18 40 18 26 0 40
4 40 13 0 16 -98 18 -108 2z"/>
<path d="M3359 643 c-3 -39 0 -87 5 -109 6 -22 12 -24 60 -24 71 0 82 12 81
85 -1 47 -4 59 -18 61 -14 2 -17 -7 -17 -57 0 -32 -3 -59 -7 -60 -5 0 -16 -2
-27 -4 -34 -7 -43 4 -41 55 1 27 -1 53 -4 57 -12 16 -31 13 -32 -4z"/>
<path d="M3632 640 c2 -8 12 -15 23 -15 16 0 20 -7 21 -40 3 -71 4 -75 19 -75
16 0 17 6 18 78 0 33 3 42 16 41 30 -3 40 1 36 14 -4 8 -27 12 -70 12 -54 1
-65 -2 -63 -15z"/>
<path d="M3889 608 c-2 -93 1 -98 71 -98 63 0 71 9 75 72 3 58 -1 71 -22 76
-9 1 -13 -15 -13 -58 0 -41 -4 -60 -12 -61 -7 0 -21 -2 -31 -4 -22 -4 -34 19
-35 68 -3 76 -31 80 -33 5z"/>
<path d="M4183 653 c-9 -3 -13 -27 -13 -74 0 -62 2 -69 19 -69 13 0 21 8 23
22 5 34 56 36 64 2 7 -25 29 -33 37 -11 2 6 0 20 -5 30 -5 10 -5 25 2 37 12
22 -2 59 -23 61 -47 4 -94 5 -104 2z m94 -39 c7 -19 -13 -34 -44 -34 -18 0
-23 6 -23 25 0 21 5 25 30 25 19 0 33 -6 37 -16z"/>
<path d="M4460 643 c-25 -18 -28 -94 -4 -117 17 -18 99 -22 123 -7 17 11 20
106 4 122 -17 17 -100 18 -123 2z m84 -19 c22 -8 22 -83 1 -85 -8 -1 -21 -2
-27 -3 -38 -6 -47 15 -39 87 1 9 43 9 65 1z"/>
</g>
</svg>
